<svg xmlns="http://www.w3.org/2000/svg" width="1200" height="630" viewBox="0 0 1200 630" fill="none">
  <defs>
    <linearGradient id="bgGradient" x1="0%" y1="0%" x2="100%" y2="100%">
      <stop offset="0%" stop-color="#667eea"/>
      <stop offset="100%" stop-color="#764ba2"/>
    </linearGradient>
  </defs>
  <rect width="1200" height="630" fill="url(#bgGradient)" rx="20"/>
  <g filter="drop-shadow(0px 4px 8px rgba(0,0,0,0.1))">
    <circle cx="180" cy="315" r="60" fill="rgba(255,255,255,0.2)"/>
    <circle cx="180" cy="315" r="45" fill="rgba(255,255,255,0.15)"/>
    <circle cx="180" cy="315" r="30" fill="rgba(255,255,255,0.1)"/>

    <path d="M220 285 L280 315 L350 315 L410 285 L450 315 L520 285 L590 315 L660 285" stroke="rgba(255,255,255,0.3)" stroke-width="3" fill="none"/>

    <circle cx="620" cy="315" r="40" fill="rgba(255,255,255,0.2)"/>
    <circle cx="620" cy="315" r="30" fill="rgba(255,255,255,0.15)"/>
    <circle cx="620" cy="315" r="20" fill="rgba(255,255,255,0.1)"/>

    <path d="M660 285 L720 315 L780 285 L840 315 L900 285 L960 315 L1020 285" stroke="rgba(255,255,255,0.3)" stroke-width="3" fill="none"/>

    <circle cx="1050" cy="315" r="80" fill="white" filter="drop-shadow(0px 4px 8px rgba(0,0,0,0.2))"/>
    <circle cx="1050" cy="315" r="60" fill="rgba(255,255,255,0.9)"/>
    <circle cx="1050" cy="315" r="45" fill="rgba(255,255,255,0.8)"/>
    <circle cx="1050" cy="315" r="30" fill="rgba(255,255,255,0.6)"/>
    <circle cx="1050" cy="315" r="15" fill="rgba(255,255,255,0.4)"/>

    <text x="1050" y="360" font-family="Arial, sans-serif" font-size="36" font-weight="bold" fill="white" text-anchor="middle">
      Feedback
    </text>
    <text x="1050" y="395" font-family="Arial, sans-serif" font-size="24" fill="rgba(255,255,255,0.9)" text-anchor="middle">
      AI-Powered
    </text>
    <text x="1050" y="420" font-family="Arial, sans-serif" font-size="18" fill="rgba(255,255,255,0.8)" text-anchor="middle">
      Community Voice
    </text>
    <text x="1050" y="440" font-family="Arial, sans-serif" font-size="16" fill="rgba(255,255,255,0.7)" text-anchor="middle">
      Collect. Analyze. Prioritize.
    </text>

    <rect x="180" y="380" width="440" height="180" rx="15" fill="rgba(255,255,255,0.1) stroke="rgba(255,255,255,0.2)" stroke-width="2"/>
    <text x="400" y="470" font-family="Arial, sans-serif" font-size="14" fill="rgba(255,255,255,0.8)" text-anchor="middle" font-weight="bold">
      Submit
    </text>
    <text x="400" y="490" font-family="Arial, sans-serif" font-size="12" fill="rgba(255,255,255,0.7)" text-anchor="middle">
      Feedback
    </text>

    <rect x="620" y="380" width="440" height="180" rx="15" fill="rgba(255,255,255,0.1)" stroke="rgba(255,255,255,0.2)" stroke-width="2"/>
    <text x="840" y="470" font-family="Arial, sans-serif" font-size="14" fill="rgba(255,255,255,0.8)" text-anchor="middle" font-weight="bold">
      Analyze
    </text>
    <text x="840" y="490" font-family="Arial, sans-serif" font-size="12" fill="rgba(255,255,255,0.7)" text-anchor="middle">
      with AI
    </text>

    <path d="M1200 0 L100 0 L100 630 L1200 630" stroke="rgba(255,255,255,0.2)" stroke-width="2"/>
  </g>
</svg>